/* XPM */
static char * button_pressed_xpm[] = {
"24 24 4 1",
" 	c None",
".	c #FFF804",
"+	c #222222",
"@	c #FFFFFF",
"........................",
"........................",
"........................",
"........................",
"++++++++++++++++++++++++",
"++++++++++++++++++++++++",
"++++++++++++++++++++++++",
"+++++@@@@@@+++++++++++++",
"+++++@@@@@@+++++++++++++",
"++++++++++++++++++++++++",
"++++++++++++++++++++++++",
"++++++++++++++++++++++++",
"++++++++++++++++++++++++",
"+++++@@@@@@+++++++++++++",
"+++++@@@@@@+++++++++++++",
"++++++++++++++++++++++++",
"++++++++++++++++++++++++",
"++++++++++++++++++++++++",
"++++++++++++++++++++++++",
"++++++++++++++++++++++++",
"++++++++++++++++++++++++",
"++++++++++++++++++++++++",
"++++++++++++++++++++++++",
"++++++++++++++++++++++++"};
