/* XPM */
static char * maxi_pressed_xpm[] = {
"24 24 4 1",
" 	c None",
".	c #4444FF",
"+	c #222222",
"@	c #FFFFFF",
"........................",
"........................",
"........................",
"........................",
"++++++++++++++++++++++++",
"++++++++++++++++++++++++",
"++++++++++++++++++++++++",
"+++++@@@@@@@@+++++++++++",
"+++++@@@@@@@@+++++++++++",
"+++++++++++@@+++++++++++",
"+++++++++++@@+++++++++++",
"+++++++++++@@+++++++++++",
"+++++++++++@@+++++++++++",
"+++++@@@@@@@@+++++++++++",
"+++++@@@@@@@@+++++++++++",
"++++++++++++++++++++++++",
"++++++++++++++++++++++++",
"++++++++++++++++++++++++",
"++++++++++++++++++++++++",
"++++++++++++++++++++++++",
"++++++++++++++++++++++++",
"++++++++++++++++++++++++",
"++++++++++++++++++++++++",
"++++++++++++++++++++++++"};
