/* XPM */
static char * maxi_focused_xpm[] = {
"24 24 5 1",
" 	c None",
".	c #4444FF",
"+	c #222222",
"@	c #404040",
"#	c #414141",
"........................",
"........................",
"........................",
"........................",
"++++++++++++++++++++++++",
"++++++++++++++++++++++++",
"++++++++++++++++++++++++",
"+++++@@@@@@@@+++++++++++",
"+++++@@@@@@##+++++++++++",
"+++++++++++##+++++++++++",
"+++++++++++##+++++++++++",
"+++++++++++##+++++++++++",
"+++++++++++##+++++++++++",
"+++++@@@@@@##+++++++++++",
"+++++@@@@@@##+++++++++++",
"++++++++++++++++++++++++",
"++++++++++++++++++++++++",
"++++++++++++++++++++++++",
"++++++++++++++++++++++++",
"++++++++++++++++++++++++",
"++++++++++++++++++++++++",
"++++++++++++++++++++++++",
"++++++++++++++++++++++++",
"++++++++++++++++++++++++"};
